<svg viewBox="0 0 161 56" xmlns="http://www.w3.org/2000/svg" data-logo="logo">
        <g transform="translate(0, 8) rotate(0)" id="logogram" style="opacity: 1;"><path fill="#1F78FF" d="M21.3474 0.349945L46.7544 25.7266V39.3499H34.8978V30.624L16.4444 12.1924H12.611V39.3499H0.754395V0.349945H21.3474ZM34.8978 13.8842V0.349945H46.7544V13.8842H34.8978Z"></path></g>
        <g transform="translate(48, 11)" id="logotype" style="opacity: 1;"><path d="M13.15 36.14L13.15 36.14Q10.24 36.14 7.98 34.90Q5.73 33.66 4.45 31.47Q3.17 29.28 3.17 26.45L3.17 26.45Q3.17 23.57 4.38 21.39Q5.59 19.20 7.72 17.96Q9.86 16.71 12.62 16.71L12.62 16.71Q15.35 16.71 17.31 17.92Q19.27 19.13 20.30 21.25Q21.34 23.36 21.34 26.13L21.34 26.13Q21.34 26.80 20.88 27.23Q20.43 27.67 19.73 27.67L19.73 27.67L5.62 27.67L5.62 24.87L19.62 24.87L18.19 25.85Q18.15 24.10 17.49 22.72Q16.82 21.34 15.60 20.53Q14.37 19.72 12.62 19.72L12.62 19.72Q10.63 19.72 9.21 20.60Q7.79 21.47 7.06 23.00Q6.32 24.52 6.32 26.45L6.32 26.45Q6.32 28.37 7.20 29.88Q8.07 31.38 9.61 32.26Q11.15 33.13 13.15 33.13L13.15 33.13Q14.23 33.13 15.37 32.73Q16.51 32.33 17.21 31.80L17.21 31.80Q17.73 31.41 18.34 31.40Q18.96 31.38 19.41 31.77L19.41 31.77Q20.01 32.29 20.04 32.92Q20.08 33.55 19.48 34.01L19.48 34.01Q18.29 34.95 16.52 35.55Q14.76 36.14 13.15 36.14ZM36.17 36L36.17 36Q35.83 36 35.51 35.90Q35.20 35.79 34.92 35.44L34.92 35.44L28.79 28.09L27.53 26.83L21.44 19.62Q20.98 19.06 20.95 18.41Q20.91 17.76 21.30 17.31Q21.69 16.85 22.46 16.85L22.46 16.85Q23.30 16.85 23.79 17.45L23.79 17.45L29.77 24.59L30.68 25.43L37.26 33.30Q37.79 33.94 37.77 34.55Q37.75 35.16 37.31 35.58Q36.88 36 36.17 36ZM22.80 36L22.80 36Q22.11 36 21.70 35.56Q21.30 35.13 21.30 34.49Q21.30 33.87 21.79 33.23L21.79 33.23L27.74 25.78L29.63 28.44L24.07 35.44Q23.54 36 22.80 36ZM36.98 19.76L31.45 27.00L29.04 24.94L34.67 17.45Q34.95 17.10 35.27 16.98Q35.58 16.85 35.97 16.85L35.97 16.85Q36.73 16.85 37.12 17.33Q37.51 17.80 37.49 18.46Q37.47 19.13 36.98 19.76L36.98 19.76ZM42.30 36L42.30 36Q41.53 36 41.00 35.48Q40.48 34.95 40.48 34.18L40.48 34.18L40.48 10.48Q40.48 9.68 41.00 9.17Q41.53 8.66 42.30 8.66L42.30 8.66L49.30 8.66Q51.92 8.66 53.95 9.82Q55.98 10.97 57.12 13.02Q58.26 15.07 58.26 17.73L58.26 17.73Q58.26 20.28 57.12 22.28Q55.98 24.27 53.95 25.39Q51.92 26.52 49.30 26.52L49.30 26.52L44.12 26.52L44.12 34.18Q44.12 34.95 43.61 35.48Q43.10 36 42.30 36ZM44.12 12.02L44.12 23.16L49.30 23.16Q50.91 23.16 52.13 22.45Q53.36 21.75 54.06 20.53Q54.76 19.30 54.76 17.73L54.76 17.73Q54.76 16.05 54.06 14.77Q53.36 13.49 52.13 12.76Q50.91 12.02 49.30 12.02L49.30 12.02L44.12 12.02ZM63.33 24.03L61.55 24.03Q61.55 21.93 62.58 20.27Q63.61 18.60 65.36 17.63Q67.11 16.64 69.22 16.64L69.22 16.64Q71.31 16.64 72.35 17.33Q73.38 18.01 73.13 18.95L73.13 18.95Q73.03 19.44 72.73 19.71Q72.44 19.97 72.05 20.04Q71.66 20.11 71.21 20.00L71.21 20.00Q68.97 19.55 67.19 19.93Q65.40 20.32 64.37 21.37Q63.33 22.42 63.33 24.03L63.33 24.03ZM61.58 36L61.58 36Q60.74 36 60.29 35.56Q59.83 35.13 59.83 34.25L59.83 34.25L59.83 18.60Q59.83 17.76 60.29 17.31Q60.74 16.85 61.58 16.85L61.58 16.85Q62.46 16.85 62.90 17.29Q63.33 17.73 63.33 18.60L63.33 18.60L63.33 34.25Q63.33 35.09 62.90 35.55Q62.46 36 61.58 36ZM82.34 36.14L82.34 36.14Q79.43 36.14 77.18 34.90Q74.92 33.66 73.64 31.47Q72.36 29.28 72.36 26.45L72.36 26.45Q72.36 23.57 73.57 21.39Q74.78 19.20 76.91 17.96Q79.05 16.71 81.81 16.71L81.81 16.71Q84.54 16.71 86.50 17.92Q88.47 19.13 89.50 21.25Q90.53 23.36 90.53 26.13L90.53 26.13Q90.53 26.80 90.07 27.23Q89.62 27.67 88.92 27.67L88.92 27.67L74.81 27.67L74.81 24.87L88.81 24.87L87.38 25.85Q87.34 24.10 86.68 22.72Q86.02 21.34 84.79 20.53Q83.56 19.72 81.81 19.72L81.81 19.72Q79.82 19.72 78.40 20.60Q76.98 21.47 76.25 23.00Q75.51 24.52 75.51 26.45L75.51 26.45Q75.51 28.37 76.39 29.88Q77.26 31.38 78.80 32.26Q80.34 33.13 82.34 33.13L82.34 33.13Q83.42 33.13 84.56 32.73Q85.70 32.33 86.40 31.80L86.40 31.80Q86.92 31.41 87.54 31.40Q88.15 31.38 88.60 31.77L88.60 31.77Q89.20 32.29 89.23 32.92Q89.27 33.55 88.67 34.01L88.67 34.01Q87.48 34.95 85.72 35.55Q83.95 36.14 82.34 36.14ZM94.77 44.19L94.77 44.19Q94.00 44.19 93.49 43.68Q92.98 43.17 92.98 42.41L92.98 42.41L92.98 26.45Q93.02 23.68 94.28 21.47Q95.53 19.27 97.70 17.99Q99.88 16.71 102.61 16.71L102.61 16.71Q105.37 16.71 107.54 17.99Q109.71 19.27 110.99 21.47Q112.27 23.68 112.27 26.45L112.27 26.45Q112.27 29.21 111.09 31.40Q109.92 33.59 107.89 34.86Q105.86 36.14 103.31 36.14L103.31 36.14Q101.24 36.14 99.51 35.28Q97.78 34.42 96.55 32.95L96.55 32.95L96.55 42.41Q96.55 43.17 96.06 43.68Q95.57 44.19 94.77 44.19ZM102.61 32.99L102.61 32.99Q104.39 32.99 105.79 32.13Q107.19 31.27 108.01 29.79Q108.84 28.30 108.84 26.45L108.84 26.45Q108.84 24.55 108.01 23.07Q107.19 21.58 105.79 20.72Q104.39 19.86 102.61 19.86L102.61 19.86Q100.86 19.86 99.44 20.72Q98.02 21.58 97.22 23.07Q96.41 24.55 96.41 26.45L96.41 26.45Q96.41 28.30 97.22 29.79Q98.02 31.27 99.44 32.13Q100.86 32.99 102.61 32.99Z" fill="#4d82ff"></path></g>
        
      </svg>